<svg xmlns="http://www.w3.org/2000/svg" xmlns:xlink="http://www.w3.org/1999/xlink" zoomAndPan="magnify" preserveAspectRatio="xMidYMid meet" version="1.0" viewBox="77.04 185.67 237.13 178.19"><defs><clipPath id="id1"><path d="M 77.042969 185.671875 L 314.175781 185.671875 L 314.175781 363.863281 L 77.042969 363.863281 Z M 77.042969 185.671875 " clip-rule="nonzero"/></clipPath></defs><path fill="#239be6" d="M 246.832031 315.40625 C 243.820312 318.039062 242.46875 315.453125 240.769531 315.402344 C 240.851562 314.835938 240.664062 314.269531 239.761719 313.695312 C 239.585938 313.988281 239.550781 314.558594 239.003906 314.964844 C 239.039062 314.804688 238.828125 313.957031 238.078125 314.144531 L 238.078125 313.71875 L 237.613281 313.71875 C 238.15625 316.277344 234.484375 315.910156 234.082031 318.199219 C 235.726562 316.609375 236.46875 319.253906 237.613281 318.222656 C 237.863281 319.339844 237.988281 320.292969 237.613281 321.691406 C 242.753906 322.597656 239.464844 320.523438 242.859375 319.066406 C 242.863281 319.3125 242.816406 319.546875 243.421875 319.945312 C 243.28125 319.375 244.921875 316.085938 245.554688 317.722656 C 246.835938 317.597656 249.039062 318.183594 247.808594 315.957031 L 248.234375 315.957031 C 248.289062 315.234375 248.246094 315.410156 246.832031 315.40625 " fill-opacity="1" fill-rule="nonzero"/><path fill="#239be6" d="M 196.703125 259.550781 C 195.160156 260.203125 197.109375 259.441406 197.121094 260.945312 C 197.1875 260.785156 197.804688 260.640625 197.671875 260 L 198.960938 260 C 198.886719 259.65625 199.230469 259.175781 199.921875 258.636719 C 199.265625 258.058594 198.425781 258.359375 197.648438 259.070312 L 197.164062 258.164062 C 196.910156 258.308594 196.5625 258.855469 196.703125 259.550781 " fill-opacity="1" fill-rule="nonzero"/><path fill="#239be6" d="M 198.527344 257.347656 C 199.695312 256.832031 197.585938 255.488281 197.121094 256.90625 L 198.015625 256.90625 L 198.015625 257.820312 L 198.527344 257.347656 " fill-opacity="1" fill-rule="nonzero"/><path fill="#239be6" d="M 242.4375 200.546875 C 245.316406 202.703125 244.960938 198.855469 244.109375 197.949219 C 241.328125 196.410156 241.066406 199.265625 242.4375 200.546875 " fill-opacity="1" fill-rule="nonzero"/><g clip-path="url(#id1)"><path fill="#239be6" d="M 238.550781 226.082031 C 238.078125 226.058594 237.195312 226.253906 236.441406 225.652344 C 237.652344 225.460938 238.882812 224.699219 239.3125 226.457031 Z M 160.414062 274.914062 C 160.488281 274.917969 160.4375 274.871094 160.582031 275.066406 Z M 159.859375 280.914062 C 159.699219 280.65625 159.660156 280.207031 159.183594 279.859375 C 159.386719 280.011719 160.027344 279.984375 159.859375 280.914062 Z M 153.15625 281.957031 L 152.902344 281.707031 L 153.164062 281.949219 Z M 314.152344 261.300781 C 313.082031 257.488281 308.976562 262.855469 306.582031 258.859375 C 301.261719 261.386719 300.625 254.609375 299.71875 249.929688 C 299.601562 249.339844 298.8125 249.214844 298.519531 249.738281 C 295.703125 254.808594 289.882812 252.992188 293.191406 249.789062 C 296.640625 250.191406 296.050781 248.394531 296.25 246.199219 C 292.835938 242.621094 291.308594 250.71875 288.261719 243.6875 C 291.261719 242.730469 285.828125 238.460938 289.179688 237.988281 C 289.003906 237.285156 288.476562 235.464844 288.695312 234.398438 C 287.292969 235.050781 286.878906 229.6875 285.144531 230.855469 C 281.597656 222.847656 277.078125 214.527344 272.757812 208.667969 C 272.304688 208.054688 272.238281 207.234375 272.59375 206.558594 C 274.417969 203.109375 273.828125 199.320312 273.632812 196.390625 C 276.777344 192.976562 272.894531 190.628906 273.773438 189.4375 C 272.414062 189.125 272.925781 188.695312 271.550781 189.886719 C 271.503906 188.644531 269.558594 188.847656 269.792969 187.335938 C 263.097656 188.339844 270.796875 183.929688 260.855469 186.476562 C 260.273438 186.621094 259.957031 187.210938 260.0625 187.800781 C 260.140625 188.222656 260.042969 188.6875 259.558594 189.054688 C 260.40625 189.859375 260.839844 190.808594 262.195312 191.28125 C 261.691406 191.597656 261.023438 192.550781 260.875 193.507812 C 262.675781 193.742188 260.621094 195.535156 259.210938 193.945312 C 259.800781 193.566406 259.527344 192.785156 258.738281 192.09375 C 256.832031 194.171875 259.085938 196.777344 255.167969 196.101562 C 255.285156 197.875 254.117188 198.714844 253.914062 200.441406 C 253.738281 200.277344 253.511719 200.097656 253.039062 199.5625 L 252.214844 200.851562 C 252.019531 199.53125 253.179688 197.621094 250.847656 196.945312 L 250.332031 198.308594 L 250.824219 198.308594 L 250.824219 199.136719 L 250.417969 199.136719 L 250.417969 198.6875 C 249.476562 198.582031 249.933594 199.695312 250.792969 200.9375 C 250.523438 200.964844 249.335938 201.066406 249.582031 199.960938 C 248.890625 201.121094 245.328125 204.003906 247.273438 204.941406 C 246.871094 205.140625 246.421875 206.300781 245.503906 206.230469 C 250.753906 213.429688 232.867188 210.027344 242.054688 206.253906 C 238.835938 203.8125 233.328125 202.585938 237.988281 208.433594 C 237.589844 208.910156 237.578125 210.335938 237.613281 211.136719 C 242.109375 210.796875 238.800781 214.476562 241.097656 215.957031 C 240.230469 216.402344 239.472656 216.082031 238.101562 216.378906 C 238.328125 216.179688 238.316406 215.378906 239.0625 215.550781 L 238.039062 214.5625 C 237.839844 214.984375 237.386719 215.101562 236.871094 215.003906 C 236.195312 214.878906 235.511719 215.152344 235.199219 215.765625 C 230.28125 225.277344 233.503906 217.882812 236.300781 225.558594 C 235.535156 224.976562 231.871094 225.996094 230.621094 224.28125 C 229.789062 224.339844 228.425781 224.296875 227.492188 223.84375 C 226.78125 226.039062 227.519531 226.210938 229.75 227.035156 C 232.210938 225.542969 231.964844 233.683594 226.203125 227.738281 L 225.753906 228.640625 C 225.4375 227.855469 223.691406 228.367188 224.0625 226.949219 C 220.773438 223.0625 224.949219 220.820312 218.78125 219.902344 L 219.234375 219.902344 L 219.234375 219.414062 L 218.335938 219.414062 L 218.335938 218.964844 C 217.4375 219.273438 215.875 217.929688 217.078125 216.832031 C 216.847656 216.796875 216.53125 217.023438 216.167969 216.453125 C 217.050781 215.714844 218.882812 218.46875 219.234375 217.339844 C 220.640625 218.113281 225.6875 219.691406 226.210938 218.148438 C 228.710938 221.398438 235.074219 215.550781 233.253906 211.929688 L 232.804688 211.929688 L 232.804688 211.007812 C 232.402344 211.769531 231.765625 211.222656 231.933594 210.164062 C 230.207031 209.976562 228.957031 209.515625 226.59375 208.339844 L 226.59375 208.757812 C 223.800781 206.125 219.003906 206.464844 215.640625 206.683594 C 215.691406 206.675781 215.398438 205.277344 214.777344 206.207031 C 211.851562 202.128906 214.03125 206.945312 211.230469 204.453125 C 211.320312 206.832031 210.957031 205.503906 209.242188 205.355469 L 209.582031 203.957031 C 209.445312 204.167969 208.683594 204.023438 208.179688 204.0625 C 208.507812 203.863281 208.976562 202.890625 208.179688 202.394531 C 208.316406 202.832031 209.722656 201.007812 208.574219 200.972656 C 208.710938 200.222656 207.898438 200.472656 206.804688 200.949219 C 206.980469 199.46875 204.824219 199.195312 204.117188 201.394531 C 204.335938 196.007812 202.082031 199.339844 201.820312 201.824219 C 201.328125 201.320312 200.902344 200.300781 201.027344 199.195312 L 200.628906 199.195312 C 202.292969 197.808594 196.386719 198.921875 199.105469 200.101562 C 198.242188 200.832031 197.117188 199.078125 196.941406 201.421875 L 196.4375 201.421875 L 196.925781 201.910156 L 196.089844 202.722656 L 195.636719 201.84375 C 194.632812 202.457031 195.96875 204.09375 193.824219 203.195312 L 193.824219 203.597656 C 192.53125 202.285156 191.183594 205.082031 192.058594 206.710938 C 191.695312 206.207031 190.644531 205.140625 190.324219 206.71875 L 189.859375 205.8125 C 189.027344 206.367188 189.554688 207.371094 189.8125 208.457031 C 188.542969 205.558594 188.757812 211.046875 188.117188 207.617188 C 187.652344 207.789062 187.496094 208.667969 187.597656 209.40625 C 186.101562 208.730469 186.179688 214.542969 184.550781 212.003906 C 183.632812 212.5625 184.390625 213.96875 183.683594 215.046875 L 183.683594 212.902344 C 183.292969 213.75 182.574219 213.015625 181.761719 213.929688 C 182.042969 213.992188 182.789062 213.75 182.714844 214.703125 L 182.300781 214.257812 C 180.882812 214.828125 179.808594 214.476562 182.265625 216.074219 C 181.800781 215.609375 179.3125 217.148438 181.367188 217.050781 C 181.40625 218.675781 178.363281 218.0625 177.363281 220.078125 C 177.964844 220.449219 177.734375 220.878906 177.097656 220.980469 C 176.859375 221.019531 176.746094 221.292969 176.894531 221.484375 C 177.179688 221.847656 177.515625 222.175781 177.835938 221.546875 L 177.835938 222.292969 L 176.480469 222.292969 C 176.5 222.519531 176.359375 222.800781 176.914062 223.207031 C 176.035156 223.867188 175.289062 223.941406 175.171875 225.820312 C 175.113281 225.742188 174.996094 225.671875 174.902344 225.542969 C 174.765625 225.351562 174.472656 225.394531 174.367188 225.605469 C 174.257812 225.824219 174.183594 226.078125 174.234375 226.359375 C 174.980469 226.082031 175.007812 227.820312 173.820312 227.640625 C 173.820312 228.039062 174.007812 229.117188 172.921875 228.960938 L 172.921875 229.460938 C 173.933594 229.542969 173.15625 230.898438 172.285156 230.277344 C 171.855469 229.964844 171.285156 229.871094 170.839844 230.15625 C 170.566406 230.328125 170.230469 230.425781 169.804688 230.3125 C 169.902344 231.0625 169.28125 232.742188 168.035156 232.503906 L 168.035156 233.78125 C 167.617188 233.257812 167.46875 233.460938 166.722656 234.289062 C 166.164062 233.429688 166.167969 234.324219 164.921875 234.730469 L 164.921875 235.582031 C 164.765625 235.464844 164.636719 235.082031 163.976562 235.179688 C 164.546875 235.394531 164.722656 236.835938 163.613281 235.617188 C 163.371094 236.53125 160.914062 235.207031 162.207031 237.398438 C 158.617188 236.753906 161.007812 237.347656 158.285156 239.097656 L 158.285156 238.308594 C 158.046875 238.316406 157.808594 238.203125 157.378906 238.742188 C 156.941406 237.785156 154.839844 238.871094 156.925781 239.695312 C 156.925781 240.617188 154.097656 239.851562 155.578125 241.828125 L 154.679688 241.402344 C 154.054688 242.804688 157.652344 244.21875 154.679688 243.144531 C 154.660156 243.804688 154.660156 244.757812 155.5625 245.429688 L 155.136719 245.828125 C 154.691406 244.886719 153.71875 246.113281 154.984375 246.742188 C 153.300781 246.488281 155.058594 248.847656 156.78125 247.804688 C 156.171875 248.414062 155.976562 248.558594 155.082031 249.453125 L 155.976562 250.320312 C 154.707031 250.121094 152.109375 250.914062 153.375 253.085938 C 153.574219 252.363281 155.539062 250.714844 155.097656 252.988281 C 154.414062 252.929688 154.878906 253.234375 154.304688 254.234375 L 154.304688 253.8125 C 153.023438 254.949219 154.035156 257.296875 155.996094 257.457031 L 155.070312 258.324219 C 155.332031 258.296875 156.039062 259.296875 156.445312 258.410156 L 156.445312 259.25 C 157.378906 259.1875 158.53125 259.5 159.585938 258.847656 L 159.585938 259.273438 C 165.949219 253.023438 163.789062 258.007812 166.1875 255.480469 C 166.425781 252.425781 168.707031 250.074219 167.964844 252.445312 C 167.820312 252.914062 168 253.433594 168.414062 253.695312 C 168.71875 253.886719 169.039062 254.140625 169.304688 254.320312 C 169.253906 254.414062 169.007812 254.546875 168.472656 255.253906 L 168.484375 255.253906 L 168.484375 259.25 L 168.933594 259.25 L 168.933594 260.214844 C 170.476562 258.648438 168.484375 263.300781 169.789062 264.109375 C 169.332031 264.328125 168.792969 265.972656 170.226562 265.921875 C 171.683594 269.324219 168.261719 274.558594 174.789062 273.90625 C 174.863281 270.796875 174.164062 272.230469 176.601562 270.707031 L 176.160156 270.707031 C 177.261719 269.21875 178.460938 271.21875 180.121094 270.78125 C 179.917969 268.960938 181.292969 267.640625 181.890625 265.847656 L 181.460938 265.847656 C 181.757812 265.332031 181.660156 265.140625 182.355469 264.5625 C 180.835938 263.410156 183.898438 261.449219 182.351562 259.683594 L 183.296875 259.207031 L 181.917969 258.773438 C 182.542969 258.214844 184.863281 259.421875 184.550781 257.027344 C 184.980469 257.082031 185.320312 256.777344 185.871094 257.503906 C 186.054688 257.023438 186.347656 256.496094 186.878906 256.097656 C 187.152344 255.890625 187.179688 255.503906 186.921875 255.277344 C 186.128906 254.570312 189.300781 254.082031 188.117188 251.617188 L 187.25 252.039062 C 187.613281 251.105469 186.070312 250.691406 186.351562 249.394531 C 184.421875 250.757812 184.851562 247.992188 183.730469 246.8125 C 184.71875 247.109375 184.59375 244.925781 184.550781 244.140625 L 185.054688 244.140625 C 184.078125 243.613281 185.640625 242.222656 185.449219 240.949219 C 181.386719 240.609375 186.664062 239.660156 188.140625 238.800781 C 186.898438 238.109375 189.328125 237.773438 188.167969 237.023438 C 188.734375 237.117188 189.152344 237.015625 189.433594 236.179688 C 189.648438 236.632812 190.117188 236.597656 190.808594 236.128906 C 191.15625 235.136719 192.136719 233.328125 193.371094 231.535156 C 193.640625 231.140625 193.6875 230.644531 193.539062 230.195312 C 193.082031 228.816406 193.742188 225.917969 195.25 226.359375 C 195.007812 222.019531 195.542969 225.78125 196.976562 223.707031 C 199.71875 225.15625 201.371094 223.40625 201.820312 228.511719 C 199.261719 228.066406 196.621094 238.246094 194.273438 236.53125 C 192.871094 239.710938 193.742188 240.671875 194.273438 243.816406 C 194.605469 247.101562 192.027344 246.324219 194.308594 249.007812 C 198.585938 248.320312 198.378906 255.171875 201.398438 250.835938 L 201.847656 251.734375 C 202.84375 249.953125 205.9375 250.78125 206.308594 248.613281 L 206.761719 249.519531 C 207.050781 248.917969 208.285156 248.808594 208.550781 247.738281 C 209.261719 248.53125 210.847656 248.304688 211.230469 246.796875 C 210.894531 248.578125 213.601562 246.617188 213.257812 247.546875 C 212.179688 251.132812 218.214844 248.207031 217.816406 250.710938 L 214.253906 250.710938 L 214.253906 251.160156 L 213.90625 251.160156 L 213.90625 250.660156 C 213.378906 250.5625 213.550781 252.675781 213.113281 252.402344 C 212.820312 252.21875 212.4375 252.296875 212.324219 252.625 C 211.601562 254.820312 210.425781 253.203125 207.796875 253.78125 C 207.460938 252.554688 204.226562 254.132812 202.421875 253.800781 L 202.421875 254.703125 C 201.652344 253.921875 199.398438 256.710938 201.582031 256.542969 L 201.582031 257.285156 C 200.164062 258.65625 202.046875 260.738281 203.390625 259.296875 C 203.285156 260.421875 202.996094 266.246094 201.976562 266.144531 C 196.34375 259.476562 195.667969 262.410156 194.023438 269.300781 L 194.035156 269.296875 C 193.789062 270.867188 194.5625 272.46875 194.484375 274.179688 C 195.644531 273.914062 195.441406 275.066406 196.890625 275.46875 C 195.53125 276.378906 194.226562 273.675781 193.644531 275.316406 L 194.070312 275.316406 C 193.898438 276.222656 191.964844 277.402344 192.402344 275.214844 C 191.371094 275.648438 191.078125 276.472656 190.167969 277.246094 C 191.914062 277.605469 189.628906 278.296875 190.113281 279.6875 L 188.835938 279.6875 L 188.835938 279.238281 C 184.445312 281.085938 189.070312 274.074219 181.21875 278.355469 L 180.769531 277.867188 C 180.71875 278.628906 178.488281 279.039062 178.070312 280.136719 C 174.699219 278.9375 174.710938 284.867188 173.738281 281.496094 L 172.390625 281.496094 L 172.390625 279.6875 C 168.761719 277.457031 168.445312 280.085938 166.542969 279.183594 L 166.542969 279.6875 C 165.816406 279.652344 164.871094 279.875 164.03125 279.308594 L 164.394531 279.308594 L 164.394531 278.890625 L 164.816406 278.890625 L 164.816406 277.886719 C 164.460938 277.964844 163.917969 277.609375 163.46875 278.339844 C 163.285156 277.855469 163.054688 277.277344 162.148438 277.46875 L 162.148438 277.019531 C 161.679688 277.070312 160.578125 277.136719 161.742188 276.152344 C 161.925781 276.128906 159.796875 275.007812 161.445312 274.925781 C 161.28125 274.761719 161.023438 274.492188 160.488281 273.988281 C 160.652344 273.878906 160.792969 273.515625 161.445312 273.609375 C 161.515625 273.640625 160.402344 272.601562 161.398438 272.734375 C 161.847656 271.875 164.347656 269.050781 164.441406 268.707031 C 164.707031 270.3125 166.457031 266.96875 164.066406 267.320312 L 164.066406 266.867188 C 163.328125 267.175781 163.519531 265.839844 164.570312 266.039062 C 164.445312 265.84375 163.929688 265.75 164.066406 265.066406 L 163.125 265.066406 C 163.511719 266.117188 160.4375 265.050781 161.78125 266.816406 C 161.613281 266.710938 161.417969 266.128906 160.949219 266.816406 C 161.175781 264.269531 159.542969 268.3125 158.734375 265.964844 C 157.109375 265.925781 158.351562 269.921875 157.300781 270.894531 C 159.203125 272.039062 159.140625 276.242188 157.648438 277.542969 L 158.0625 277.542969 C 157.96875 278.128906 158.050781 278.585938 158.933594 278.867188 C 158.832031 279.027344 158.269531 279.210938 158.917969 279.6875 L 157.195312 279.6875 C 157.203125 280.84375 157.347656 281.066406 156.746094 282.226562 C 156.582031 282.027344 156.25 281.300781 156.371094 280.589844 L 155.851562 280.589844 C 156.027344 281.25 155.15625 281.207031 155.945312 280.164062 C 155.445312 279.617188 153.585938 279.65625 152.730469 279.6875 C 152.132812 280.480469 153.273438 281.628906 151.875 281.972656 C 152.019531 279.8125 151.933594 279.707031 149.660156 281.085938 L 149.660156 280.148438 C 149.15625 281.121094 146.671875 280.332031 146.886719 282.214844 C 147.625 285.910156 143.773438 285.804688 145.691406 283.746094 L 145.25 283.746094 C 146.078125 283.359375 146.59375 281.710938 144.773438 281.972656 L 144.773438 281.59375 C 144.277344 281.769531 144.640625 284.398438 143.328125 284.648438 C 143.484375 285.21875 142.925781 285.730469 142.007812 285.550781 L 142.007812 286.519531 C 142.523438 286.445312 142.789062 286.699219 141.664062 287.292969 L 141.664062 286.449219 L 141.109375 286.449219 C 141.265625 287.582031 140.570312 288.140625 141.949219 288.644531 C 141.816406 288.601562 141.007812 288.816406 141.167969 289.507812 C 139.773438 289.691406 138.910156 289.230469 138.574219 288.160156 C 138.328125 288.171875 138.0625 288.042969 137.636719 288.625 L 137.152344 288.101562 C 137.277344 288.46875 137.015625 288.851562 136.328125 289.054688 C 130.410156 287.878906 135.734375 293.90625 127.359375 293.839844 L 127.359375 294.386719 C 127.828125 294.367188 128.527344 294.539062 129.078125 295.191406 L 128.679688 295.191406 L 128.679688 295.640625 C 128.246094 295.160156 126.878906 295.144531 126.085938 295.191406 L 126.085938 294.738281 C 125.214844 294.886719 124.386719 294.390625 123.351562 293.816406 L 123.351562 294.292969 L 122.542969 293.867188 C 123.550781 293.253906 121.964844 293.359375 123.027344 292.097656 C 117.722656 290.351562 123.699219 298.648438 119.027344 296.542969 L 119.453125 296.058594 C 118.757812 295.90625 117.875 296.464844 117.117188 295.625 L 117.117188 296.058594 L 116.324219 296.058594 L 116.324219 294.738281 C 115.789062 294.632812 114.964844 295.164062 115.832031 293.898438 C 114.773438 294.058594 114.546875 294.359375 113.207031 294.738281 C 113.304688 293.890625 112.335938 294.667969 111.375 293.824219 C 111.246094 294.257812 110.28125 294.417969 109.570312 294.316406 L 109.570312 294.8125 L 110.855469 294.8125 L 110.855469 295.667969 L 110.464844 295.667969 C 110.53125 296.308594 109.894531 295.792969 109.074219 296.613281 C 109.75 295.890625 110.5625 298.726562 110.539062 297.503906 L 111.410156 297.953125 C 111.382812 296.707031 111.984375 298.65625 113.132812 298.804688 L 113.132812 299.257812 L 113.550781 299.257812 L 113.550781 300.15625 L 115.296875 300.15625 L 114.816406 300.605469 C 115.523438 300.445312 116.007812 301.023438 115.332031 301.929688 C 115.523438 301.882812 116.445312 302 116.253906 302.832031 C 116.21875 303.242188 115.96875 308.277344 118.464844 307.292969 C 118.414062 307.566406 118.699219 308.144531 117.964844 308.59375 L 118.414062 308.59375 C 117.84375 309.210938 118.039062 310.152344 117.566406 311.269531 L 118.015625 311.269531 C 117.917969 311.988281 118.722656 313.15625 118.464844 314.242188 C 117.996094 313.425781 117.609375 312.394531 117.1875 311.148438 C 115.597656 312.4375 117.539062 315.773438 115.351562 315.613281 C 114.015625 321.136719 110.136719 321.726562 106.199219 318.257812 C 101.71875 317.078125 92.433594 313.972656 93.113281 312.015625 C 92.582031 312.183594 91.953125 312.949219 91.242188 311.988281 L 91.242188 312.460938 L 89.871094 312.460938 C 90.425781 312.769531 90.269531 313.175781 89.542969 313.761719 C 89.699219 312.785156 88.390625 313.230469 87.730469 312.433594 L 87.277344 313.335938 C 86.984375 312.785156 85.355469 313.335938 86.355469 314.796875 L 86.808594 314.378906 C 86.847656 314.550781 86.648438 315.347656 85.90625 315.164062 L 85.90625 315.625 L 86.425781 315.625 C 86.636719 314.683594 87.902344 315.378906 86.304688 316.976562 C 87.910156 317.339844 85.074219 317.398438 85.515625 318.746094 C 84.207031 327.921875 78.398438 328.839844 78 332.921875 C 83.359375 333.566406 73.582031 340.863281 78.449219 341.367188 C 79.082031 340.726562 80.554688 343.152344 81.535156 342.324219 L 81.535156 342.71875 C 82.957031 341.597656 87.265625 344.269531 85.855469 345.867188 L 86.78125 345.867188 C 86.6875 346.164062 86.273438 346.523438 86.355469 347.148438 L 85.402344 347.148438 C 85.898438 348.445312 86.78125 348.855469 87.730469 350.339844 C 91.640625 345.621094 100 351.632812 102.761719 350.25 C 106.09375 345.78125 103.875 351.316406 113.128906 344.058594 C 109.921875 340.5 115.402344 337.230469 118.441406 335.554688 L 118.027344 335.554688 L 118.027344 335.207031 C 122.589844 332.554688 129.097656 336.078125 128.769531 328.5625 C 127.789062 325.917969 132.511719 324.695312 134.910156 325.921875 L 134.910156 326.875 C 135.277344 326.515625 135.875 326.082031 136.703125 325.921875 L 136.703125 326.824219 L 137.578125 326.824219 L 137.578125 327.75 L 138.0625 327.261719 C 142.015625 331.753906 141.308594 327.011719 143.425781 327.699219 L 143.425781 327.246094 L 144.253906 327.246094 L 144.253906 327.746094 C 145.824219 326.9375 149.921875 322.539062 151.304688 324.953125 C 151.546875 324.117188 152.519531 325.046875 153.101562 325.417969 C 153.058594 324.886719 153.191406 324.355469 154.328125 324.484375 C 154.070312 324.707031 153.554688 325.230469 154.359375 325.800781 C 154.46875 332.492188 165.957031 342.9375 166.425781 341.378906 C 169 343.882812 179.242188 352.265625 173.9375 353.304688 C 172.164062 359.3125 175.652344 357.089844 177.609375 353.34375 C 181.097656 352.703125 179.109375 349.414062 177.800781 348.988281 C 176.882812 348.386719 177.515625 347.921875 178.535156 346.214844 L 178.074219 346.214844 C 179.089844 344.496094 180.390625 346.695312 182.410156 346.285156 C 182.441406 351.761719 191.195312 345.71875 174.929688 340.421875 C 180.039062 336.097656 168.832031 342.671875 167.359375 328.882812 C 163.511719 327.851562 161.871094 326.636719 164.242188 322.636719 C 163.96875 322.695312 163.210938 322.597656 163.34375 321.769531 L 162.941406 321.769531 C 163.070312 321.679688 163.175781 321.261719 163.769531 321.359375 L 163.769531 320.484375 C 165.441406 321.3125 167.160156 318.386719 168.257812 320.535156 C 168.121094 318.851562 168.464844 320.191406 169.507812 319.25 C 169.609375 320.246094 169.605469 320.660156 168.171875 321.382812 C 169.03125 322.105469 168.335938 323.507812 169.550781 324.570312 C 171.480469 319.839844 173.300781 322.910156 172.617188 326.3125 L 173.515625 326.3125 L 173.515625 326.796875 C 173.984375 326.699219 174.214844 326.976562 174.816406 327.59375 L 173.460938 327.59375 C 176.855469 331.851562 187.625 336.277344 187.324219 338.296875 L 188.195312 338.296875 L 188.195312 338.75 L 189.167969 338.75 L 189.167969 338.714844 C 189.15625 338.511719 190.109375 340.109375 189.121094 339.96875 C 189.222656 342.175781 188.824219 343.867188 188.671875 345.808594 L 189.121094 345.808594 L 189.121094 346.214844 L 188.671875 346.214844 C 188.265625 347.902344 190.753906 346.730469 191.316406 348.855469 L 191.257812 348.855469 C 191.507812 349.386719 191.847656 350.527344 193.015625 350.253906 C 193.136719 350.800781 192.660156 351.496094 193.535156 352.070312 C 193.429688 351.890625 195.710938 350.800781 195.296875 352.40625 C 192.617188 351.984375 193.347656 355.402344 196.585938 354.277344 L 196.585938 354.71875 C 197.683594 354.171875 199.144531 353.785156 200.25 355.164062 C 200.296875 353.707031 201.777344 355.644531 202.789062 355.996094 C 200.59375 358.078125 201.632812 354.683594 199.765625 355.925781 L 199.765625 355.523438 C 190.058594 356.183594 199.273438 357.765625 196.570312 360.460938 C 197.367188 361.992188 198.105469 364.738281 198.835938 360.929688 C 199.597656 362.527344 201.011719 366.097656 201.464844 361.871094 L 201.464844 362.714844 L 201.914062 362.714844 L 201.914062 363.589844 L 204.265625 363.589844 C 204.25 362.660156 202.558594 362.429688 202.882812 360.84375 C 198.78125 356.882812 205.089844 362.023438 205.128906 358.140625 C 202.089844 360.339844 203.539062 354.5 206.476562 357.84375 C 207.355469 351.421875 199.011719 354.695312 201.984375 351.082031 C 199.363281 350.183594 203.769531 348.527344 203.292969 351.152344 C 203.734375 351.308594 203.976562 350.855469 204.289062 350.179688 C 202.132812 349.945312 198.351562 343.429688 201.917969 344.265625 C 202.253906 346.03125 203.246094 347.351562 205.128906 348.050781 C 205.355469 347.042969 203.417969 347.417969 203.78125 345.859375 C 204.339844 346.460938 205.226562 347.425781 206.476562 347.621094 L 206.476562 347.089844 C 205.738281 347.257812 205.886719 346.398438 205.175781 345.808594 L 205.929688 345.808594 C 205.636719 347.058594 206.753906 346.859375 207.820312 346.109375 C 208.011719 345.976562 207.953125 345.675781 207.726562 345.625 C 206.71875 345.386719 205.34375 344.847656 205.128906 343.585938 C 208.679688 344.378906 206.675781 341.621094 208.164062 342.703125 C 208.277344 343.273438 210.675781 343.183594 209.644531 342.265625 C 212.316406 341.847656 214.269531 344.542969 216.113281 343.25 C 216.34375 343.753906 215.816406 344.050781 215.300781 344.453125 C 215.039062 344.660156 215.1875 345.097656 215.519531 345.09375 C 217.429688 345.070312 218.976562 342.203125 221.28125 341.101562 C 222.527344 340.519531 224.667969 341.828125 224.679688 339.964844 C 224.683594 339.746094 224.53125 339.554688 224.320312 339.5 C 222.609375 339.085938 220.367188 338.082031 220.46875 335.90625 C 220.476562 335.761719 220.382812 335.628906 220.234375 335.613281 C 219.90625 335.578125 219.484375 335.382812 219.597656 334.746094 C 219.261719 334.828125 218.683594 334.496094 218.277344 335.140625 C 218.355469 334.832031 217.910156 333.269531 219.148438 333.492188 C 219.140625 333.222656 219.023438 333.003906 219.613281 332.554688 C 219.644531 332.78125 218.59375 331.15625 219.597656 331.273438 L 219.597656 329.5 C 223.835938 330.367188 220.019531 325.660156 222.464844 324.023438 C 220.21875 324.804688 222.972656 319.855469 222.820312 323.222656 C 223.089844 323.265625 223.859375 323.128906 223.757812 322.320312 C 224.8125 322.90625 224.996094 318.058594 224.285156 320.234375 C 223.976562 319.769531 222.238281 317.328125 223.992188 317.273438 L 223.992188 317.777344 C 226.078125 316.507812 228.351562 317.046875 224.929688 314.691406 L 225.277344 314.691406 L 225.277344 314.746094 C 229.34375 314.847656 224.34375 314.035156 230.550781 312.015625 L 230.550781 312.40625 L 231.097656 312.40625 L 231.097656 311.347656 C 231.097656 311.085938 231.449219 311.003906 231.566406 311.238281 C 231.804688 311.71875 232.074219 312.28125 232.320312 312.820312 C 229.207031 314.402344 234.640625 315.589844 236.320312 313.371094 L 236.738281 314.726562 C 236.941406 313.59375 240.03125 311.890625 240.699219 313.339844 L 241.195312 313.339844 L 241.195312 312.890625 C 242.09375 313.023438 241.582031 311.265625 242.859375 311.136719 L 242.859375 312.015625 C 249.921875 307.550781 246.625 310.640625 250.417969 306.296875 C 251.257812 307.242188 251.199219 305.921875 252.535156 305.460938 C 252.195312 307.945312 254.574219 303.785156 255.261719 305.496094 C 255.273438 307.234375 251.746094 306.597656 253.882812 308.429688 C 248.992188 308.679688 251.175781 309.464844 254.160156 311.046875 C 253.921875 311.042969 253.875 311.0625 253.4375 311.480469 L 253.007812 310.980469 C 252.71875 311.625 253.625 312.171875 253.042969 312.800781 C 251.554688 311.125 252.238281 312.5625 251.195312 313.757812 C 251.445312 313.867188 251.851562 314.335938 251.695312 315.011719 C 247.210938 317.410156 254.214844 317.195312 253.914062 318.601562 C 257.3125 317.628906 259.542969 321.59375 263.164062 322.621094 C 264.007812 323.152344 266.734375 322.070312 266.671875 323.910156 C 268.171875 323.449219 269.667969 326.394531 270.5625 327.804688 C 270.4375 327.359375 268.945312 329.632812 270.246094 329.617188 L 270.246094 329.167969 C 272.328125 329.699219 275.644531 327.332031 275.441406 329.617188 C 281.136719 328.835938 275.421875 335.695312 281.59375 333.175781 C 281.667969 333.308594 282.132812 333.457031 282.03125 334.0625 C 295.339844 342.769531 293.40625 324.472656 297.460938 332.1875 L 296.890625 332.1875 C 300.203125 334.984375 292.828125 334.328125 301.089844 335.359375 L 300.574219 334.84375 L 301.039062 334.46875 C 297.574219 332.222656 302.691406 332.707031 300.132812 329.167969 C 301.03125 328.125 300.054688 326.53125 300.828125 325.449219 C 301.15625 324.988281 300.972656 324.34375 300.425781 324.207031 C 296.847656 323.308594 297.960938 322.042969 294.453125 320.335938 L 294.472656 320.292969 C 285.453125 317.078125 290.449219 313.226562 284.667969 310.558594 C 283.582031 313.171875 282.542969 308.136719 284.339844 306.632812 C 283.410156 306.546875 284.042969 301.929688 285.128906 303.65625 C 285.789062 302.835938 286.796875 302.304688 287.355469 301.027344 L 287.734375 301.476562 C 289.808594 298.488281 284.167969 299.304688 286.046875 297.984375 C 286.5 297.664062 286.527344 297.003906 286.082031 296.671875 C 285.191406 296.003906 284.046875 295.332031 283.195312 294.542969 C 282.804688 294.183594 282.230469 294.144531 281.773438 294.410156 C 278.964844 296.03125 279.449219 290.957031 277.257812 292.917969 C 277.136719 291.9375 277.242188 290.371094 278.179688 289.4375 C 275.621094 289.675781 276.726562 284.570312 276.835938 283.296875 L 276.449219 283.296875 C 277.71875 280.644531 278.152344 283.421875 279.855469 284.316406 C 281.367188 283.464844 280.492188 280.945312 279.039062 280.234375 C 279.414062 280.027344 280 279.746094 280.757812 279.851562 C 280.625 274.988281 280.828125 278.808594 282.453125 276.117188 C 284.117188 274.890625 283.519531 272.492188 284.46875 273.445312 C 286.238281 275.824219 286.632812 270.351562 288.472656 271.691406 C 288.742188 271.882812 289.105469 271.828125 289.289062 271.554688 C 289.933594 270.59375 292.59375 271.640625 294.394531 272.371094 C 294.902344 272.578125 295.4375 272.199219 295.457031 271.648438 C 295.53125 269.582031 300.214844 273.925781 299.71875 270.152344 L 300.109375 270.152344 C 300.089844 269.953125 300.214844 269.695312 299.761719 269.285156 L 301.476562 269.285156 C 300.390625 267.769531 301.953125 268.175781 303.675781 268.375 L 303.675781 267.476562 L 304.5 267.476562 C 303.867188 263.746094 307.667969 267.5625 310.265625 266.21875 C 309.59375 263.675781 314.554688 264.273438 314.152344 261.300781 " fill-opacity="1" fill-rule="nonzero"/></g><path fill="#239be6" d="M 126.105469 342.800781 C 125.589844 342.546875 125.910156 342.058594 125.183594 341.421875 C 125.144531 341.550781 124.605469 341.742188 124.699219 342.339844 L 122.929688 342.339844 L 122.929688 342.863281 C 125.683594 342.566406 124.441406 345.792969 127.066406 342.789062 C 126.910156 342.789062 126.621094 342.785156 126.105469 342.800781 " fill-opacity="1" fill-rule="nonzero"/><path fill="#239be6" d="M 129.667969 341.898438 C 128.257812 340.816406 128.59375 342.546875 130.582031 342.863281 L 130.582031 341.890625 C 130.421875 341.890625 130.167969 341.882812 129.667969 341.898438 " fill-opacity="1" fill-rule="nonzero"/><path fill="#239be6" d="M 118.046875 344.113281 L 118.046875 344.5625 L 117.148438 344.5625 L 117.148438 345.558594 C 117.402344 345.5 117.90625 344.984375 118.535156 345.085938 C 118.507812 344.765625 118.445312 344.613281 119.074219 344.113281 L 118.046875 344.113281 " fill-opacity="1" fill-rule="nonzero"/><path fill="#239be6" d="M 103.351562 208.421875 C 103.808594 208.820312 104.402344 210.035156 105.558594 209.785156 C 105.296875 211.035156 105.980469 213.078125 107.773438 212.910156 C 107.578125 214.179688 108.3125 213.71875 109.191406 214.726562 C 109.207031 214.453125 109.042969 214.242188 109.570312 213.828125 L 109.570312 214.230469 C 110.414062 214.0625 113.371094 213.355469 114.003906 214.703125 C 114.675781 214.160156 117.765625 213.269531 117.566406 214.730469 C 118.007812 214.007812 119.507812 214.3125 119.800781 212.933594 C 121.535156 214.539062 123.28125 211.488281 122.519531 208.839844 C 121.328125 209.402344 121.457031 207.480469 122.519531 208.480469 C 121.410156 205.882812 122.839844 207.203125 122.972656 205.667969 C 121.664062 206.6875 121.570312 205.882812 122.03125 203.980469 L 122.03125 204.371094 L 121.132812 203.921875 C 121.4375 204.636719 119.347656 206.304688 119.40625 204.371094 C 118.792969 204.542969 118.238281 205.285156 117.203125 205.296875 C 117.308594 204.566406 118.0625 204.089844 117.117188 203.441406 C 115.605469 208.875 116.683594 201.226562 115.386719 203.054688 L 114.871094 202.542969 C 112.863281 206.992188 114.1875 199.007812 112.269531 203.359375 C 111.640625 203.550781 111.117188 202.355469 110.089844 204.308594 L 110.089844 203.945312 C 109.054688 204.433594 110.511719 202.121094 110.089844 201.339844 C 110.480469 201.460938 111.1875 201.292969 111.433594 200.367188 C 110.179688 201.03125 112.910156 196.921875 109.515625 197.273438 C 109.726562 197.425781 110.207031 197.992188 110.445312 198.628906 L 110.015625 198.628906 C 110.394531 199.867188 109.191406 201.355469 109.191406 199.03125 L 108.714844 199.457031 L 108.714844 197.761719 L 108.644531 197.761719 C 108.78125 198.015625 108.402344 198.511719 107.773438 197.679688 L 107.773438 199.054688 C 107.050781 198.722656 106.363281 198.207031 107.75 199.527344 C 106.660156 200.042969 106.832031 200.171875 105.976562 198.578125 L 105.976562 199.5 L 105.632812 199.5 L 105.632812 199.03125 C 103.609375 200 113.445312 203.117188 106.8125 202.171875 C 107.128906 202.398438 107.566406 202.921875 108.207031 203.53125 C 107.769531 205.085938 103.585938 200.339844 103.339844 203.140625 C 103.898438 203.3125 105.679688 202.582031 105.558594 204.015625 C 106.527344 203.953125 105.585938 205.09375 105.558594 206.296875 L 105.976562 205.84375 C 106.089844 206.550781 103.582031 208.007812 102.882812 207.046875 C 102.695312 207.394531 102 208.558594 103.351562 208.421875 " fill-opacity="1" fill-rule="nonzero"/><path fill="#239be6" d="M 103.371094 270.550781 C 103.699219 271.234375 104.375 270.574219 105.058594 271.371094 C 104.203125 271.636719 103.777344 270.953125 102.640625 270.886719 Z M 100.234375 272.703125 C 97.957031 275.042969 101.359375 272.585938 100.222656 274.984375 L 101.003906 274.984375 C 99.882812 275.453125 100.378906 275.457031 101.371094 275.4375 C 100.515625 275.574219 99.972656 276.234375 101.570312 275.457031 L 101.570312 276.332031 C 102.53125 275.113281 103.601562 277.121094 104.691406 275.875 C 105.085938 276.335938 105.695312 276.46875 106.875 275.488281 L 106.875 275.859375 C 117.941406 275.410156 111.480469 271.667969 117.929688 266.171875 L 117.929688 267.027344 L 118.417969 267.027344 C 118.433594 264.808594 117.445312 266.570312 117.222656 265.527344 C 118.613281 264.980469 117.65625 264.183594 117.519531 262.484375 L 116.203125 262.484375 C 116.304688 261.433594 116.535156 261.851562 114.871094 260.625 L 114.871094 261.160156 C 112.027344 260.511719 111.625 261.425781 109.085938 262.46875 C 109.371094 262.695312 109.957031 263.476562 110.8125 263.457031 C 110.167969 263.339844 108.875 265.425781 108.539062 264.992188 C 107.671875 263.6875 104.070312 261.507812 105.132812 264.855469 C 104.941406 265.453125 102.285156 267.261719 104.238281 267.867188 L 104.238281 268.792969 C 107.933594 267.152344 103.863281 270.527344 101.898438 270.46875 L 102.382812 270.886719 L 101.960938 270.886719 C 101.789062 271.761719 97.476562 271.691406 101.519531 272.695312 C 101.199219 272.699219 100.824219 272.6875 100.234375 272.703125 " fill-opacity="1" fill-rule="nonzero"/><path fill="#239be6" d="M 151.71875 332.351562 C 148.402344 331.1875 147.21875 336.554688 150.109375 338.683594 C 150.25 336.894531 152.550781 334.644531 151.71875 332.351562 " fill-opacity="1" fill-rule="nonzero"/><path fill="#239be6" d="M 150.996094 340.789062 L 150.636719 340.433594 L 151.050781 340.433594 C 150.964844 340.082031 149.953125 339.808594 150.109375 338.953125 C 149.914062 339.078125 149.820312 339.59375 149.140625 339.460938 L 149.140625 339.875 C 148.410156 339.648438 146.445312 341.171875 145.601562 340.308594 C 145.347656 340.847656 144.574219 344.960938 146.867188 344.398438 C 145.828125 344.679688 146.539062 346.644531 145.101562 346.546875 C 145.859375 347.339844 144.699219 350.175781 147.441406 349.742188 C 147.285156 349.136719 147.644531 347.933594 148.753906 348.867188 C 151.007812 350.199219 149.882812 343.820312 151.457031 342.585938 L 151.03125 342.585938 C 151.136719 342.246094 151.71875 341.546875 150.996094 340.789062 " fill-opacity="1" fill-rule="nonzero"/><path fill="#239be6" d="M 170.984375 355.449219 C 163.496094 357.65625 164.65625 353.761719 162.117188 355.414062 C 161.238281 353.082031 159.628906 357.265625 160.851562 357.359375 C 165.761719 359.25 166.226562 361.226562 170.597656 362.648438 C 170.054688 361.90625 172.445312 360.640625 171.101562 360.332031 L 171.550781 359.914062 C 169.882812 359.53125 172.792969 356.617188 172.808594 354.964844 C 172.429688 355.1875 171.789062 355.570312 170.984375 355.449219 " fill-opacity="1" fill-rule="nonzero"/><path fill="#239be6" d="M 118.914062 272.363281 L 118.914062 273.304688 C 119.578125 273.433594 121.433594 272.636719 118.914062 272.363281 " fill-opacity="1" fill-rule="nonzero"/><path fill="#239be6" d="M 124.074219 287.992188 L 125.007812 287.992188 L 125.007812 287.46875 L 123.535156 287.46875 L 124.074219 287.992188 " fill-opacity="1" fill-rule="nonzero"/><path fill="#239be6" d="M 132.792969 246.992188 C 132.589844 247.117188 132.46875 247.601562 131.742188 247.492188 L 132.792969 248.484375 L 132.792969 246.992188 " fill-opacity="1" fill-rule="nonzero"/><path fill="#239be6" d="M 138.472656 244.410156 C 138.4375 247.914062 140.398438 238.316406 138.921875 243.472656 L 138.023438 243.472656 C 138.039062 243.710938 137.910156 243.980469 138.472656 244.410156 " fill-opacity="1" fill-rule="nonzero"/><path fill="#239be6" d="M 122.03125 248.738281 C 121.890625 248.589844 121.5625 248.511719 121.652344 247.863281 C 121.121094 248.386719 120.5625 249.527344 120.648438 250.734375 C 120.75 250.308594 122.035156 248.34375 122.03125 250.300781 C 122.582031 250.109375 122.28125 248.734375 123.421875 248.855469 C 123.222656 248.34375 123.917969 248.285156 123.839844 247.4375 C 123.660156 247.9375 122.765625 247.976562 122.03125 247.914062 L 122.03125 248.738281 " fill-opacity="1" fill-rule="nonzero"/><path fill="#239be6" d="M 121.652344 268.878906 C 122.121094 267.453125 119.480469 268.214844 120.675781 269.320312 C 120.726562 269.296875 121.203125 269.082031 121.652344 268.878906 " fill-opacity="1" fill-rule="nonzero"/><path fill="#239be6" d="M 121.097656 252.015625 L 121.097656 252.996094 L 121.957031 252.535156 C 121.203125 255.015625 122.875 253.675781 122.972656 251.496094 C 122.828125 251.640625 122.59375 251.945312 122.070312 252.375 L 122.070312 251.527344 L 121.097656 252.015625 " fill-opacity="1" fill-rule="nonzero"/><path fill="#239be6" d="M 121.910156 280.65625 L 121.6875 280.65625 L 121.6875 280.632812 L 121.910156 280.632812 Z M 123.648438 252.757812 L 123.65625 253.171875 L 123.261719 253.171875 L 123.261719 253.246094 C 124.871094 253.34375 122.664062 255.199219 121.402344 256.742188 C 121.464844 256.785156 121.414062 256.753906 121.171875 256.410156 C 120.050781 256.441406 121.804688 256.488281 120.601562 257.417969 L 121.097656 257.417969 L 121.097656 257.804688 L 121.171875 257.804688 L 121.171875 257.417969 L 121.652344 257.417969 L 121.652344 256.992188 L 122.375 257.714844 C 122.652344 257.015625 122.960938 256.578125 124.042969 256.367188 C 123.660156 256.703125 123.425781 257.011719 122.695312 257.6875 L 123.226562 257.6875 L 123.226562 258.066406 C 122.160156 257.796875 121.210938 258.980469 121.429688 260.378906 C 123.09375 258.230469 123.503906 259.269531 122.328125 260.78125 C 122.511719 260.785156 123.976562 260.683594 124.097656 261.609375 L 123.648438 261.609375 C 123.683594 262.15625 122.867188 263.324219 121.878906 263.382812 C 121.941406 263.683594 121.808594 264.390625 120.980469 264.25 L 120.980469 264.734375 L 120.53125 264.734375 L 120.53125 266.574219 L 121.050781 266.574219 C 120.894531 264.695312 121.570312 265.949219 122.398438 267.078125 C 122.089844 266.488281 123.046875 264.75 123.226562 266.597656 L 124.097656 266.148438 L 124.097656 266.574219 L 124.617188 266.574219 C 124.464844 265.203125 125.644531 267.421875 126.316406 266.175781 C 126.320312 266.351562 126.113281 266.957031 125.445312 266.808594 L 125.445312 267.171875 C 124.566406 265.917969 122.988281 269.90625 124.976562 269.972656 C 123.367188 271.453125 125.402344 269.40625 125.894531 271.21875 L 125.027344 271.21875 L 125.027344 271.667969 L 124.578125 271.667969 C 124.878906 273.273438 123.761719 271.933594 123.675781 273.515625 L 124.125 273.515625 L 124.125 274.390625 L 124.53125 274.390625 C 124.582031 274.351562 123.546875 275.277344 123.746094 274.265625 C 123.585938 274.585938 122.894531 275.007812 123 273.953125 L 122.136719 273.953125 L 122.136719 273.523438 C 121.429688 273.8125 115.566406 275.160156 119.460938 275.394531 C 120.332031 273.9375 120.476562 276.324219 119.378906 276.628906 C 120.371094 277.582031 118.890625 277.234375 118.085938 278.414062 L 117.636719 277.929688 C 116.5 279.289062 115.429688 276.792969 114.429688 279.371094 L 115.828125 279.371094 L 115.828125 279.722656 L 115.378906 279.722656 C 115.203125 281.261719 118.3125 278.515625 117.597656 281.144531 L 118.898438 281.144531 C 117.789062 282.929688 121.601562 282.199219 122.730469 281.953125 C 121.730469 282.960938 118.792969 284.847656 117.519531 282.789062 L 116.078125 282.789062 C 116.765625 283.195312 116.558594 283.863281 115.226562 283.207031 C 115.589844 284.476562 111.371094 285.6875 110.382812 285.953125 L 111.21875 285.953125 L 111.21875 286.851562 L 112.191406 286.851562 L 112.191406 286.402344 L 112.566406 286.402344 L 112.566406 286.902344 C 114.210938 284.804688 115.300781 287.253906 117.058594 287.292969 C 117.269531 285.609375 120.285156 284.902344 121.015625 287.300781 C 122.125 286.734375 122.71875 287.015625 124.195312 287.300781 C 124.304688 285.421875 125.089844 287.59375 126.34375 287.300781 C 126.84375 288.984375 136.4375 288.019531 132.972656 286.441406 C 132.421875 286.941406 130.40625 285.46875 131.203125 285.046875 C 131.644531 285.671875 133.390625 284.8125 132.25 284.527344 C 132.410156 284.125 133.363281 284.199219 133.996094 284.210938 L 133.996094 283.726562 C 137.378906 282.652344 137.441406 278.792969 131.777344 278.9375 C 133.195312 276.441406 134.160156 277.144531 131.328125 274.390625 C 131.4375 274.410156 131.605469 274.375 131.792969 274.375 C 132.246094 274.378906 132.601562 273.96875 132.550781 273.515625 C 132.183594 270.125 130.828125 267.96875 130.394531 263.636719 L 130.351562 263.71875 C 130.5 262.277344 124.238281 261.011719 127.539062 261.652344 C 128.347656 261.804688 128.433594 261.238281 129.546875 260.710938 C 127.296875 260.246094 128.40625 259.824219 130.847656 259.90625 C 130.492188 259.074219 133.292969 258.875 131.734375 257.652344 C 131.871094 257.574219 132.019531 257.140625 132.617188 257.238281 C 135.347656 254.820312 130.023438 254.019531 127.3125 254.941406 L 127.3125 254.113281 L 127.699219 254.113281 L 127.699219 254.042969 C 127.050781 254.136719 127.3125 253.402344 128.601562 253.246094 C 128.078125 252.273438 134.835938 250.789062 130.847656 250.046875 L 130.847656 249.601562 C 130.503906 249.90625 128.886719 250.394531 129.050781 249.09375 L 128.566406 249.605469 L 128.25 249.21875 C 128.875 249.308594 127.957031 248.617188 127.242188 248.722656 C 127.328125 249.054688 127.078125 249.53125 126.742188 250.121094 L 127.1875 250.121094 C 127.070312 251.039062 125.265625 249.449219 126.269531 250.527344 C 125.648438 250.695312 125.40625 250.660156 125.867188 252.226562 C 125.589844 252.171875 125.890625 251.800781 125.066406 251.847656 C 125.253906 250.90625 123.554688 251.300781 123.648438 252.757812 " fill-opacity="1" fill-rule="nonzero"/><path fill="#239be6" d="M 160.074219 263.980469 C 156.628906 267.226562 163.25 262.332031 164.996094 264.976562 C 165.824219 263.832031 165.398438 263.253906 165.777344 262.292969 C 165.957031 261.839844 165.492188 261.402344 165.050781 261.605469 C 163.410156 262.351562 162.351562 264.394531 160.074219 263.980469 " fill-opacity="1" fill-rule="nonzero"/><path fill="#239be6" d="M 164.546875 274.265625 L 164.546875 272.449219 C 164.253906 272.46875 164.082031 272.554688 163.609375 271.957031 L 163.1875 272.433594 L 162.703125 271.917969 L 162.703125 272.449219 L 162.230469 272.449219 L 162.230469 273.847656 L 163.152344 273.847656 L 163.152344 274.265625 L 164.546875 274.265625 " fill-opacity="1" fill-rule="nonzero"/><path fill="#239be6" d="M 165.621094 271.535156 C 165.359375 271.734375 164.738281 272.3125 165.59375 272.910156 C 164.425781 273.652344 165.800781 274.503906 166.957031 274.238281 L 166.957031 274.640625 C 166.042969 274.535156 167.25 275.253906 167.984375 275.136719 C 166.429688 274.300781 169.875 274.082031 168.367188 272.90625 C 170.792969 271.007812 168.496094 271.316406 169.753906 270.199219 L 169.300781 270.199219 L 169.75 269.746094 C 169.144531 269.867188 168.449219 269.375 167.808594 270.269531 C 168.160156 270.230469 169.539062 270.984375 167.40625 271.074219 C 166.957031 272.992188 167.136719 270.839844 166.507812 270.621094 C 166.5625 270.910156 166.449219 271.648438 165.621094 271.535156 " fill-opacity="1" fill-rule="nonzero"/><path fill="#239be6" d="M 164.710938 275.515625 C 164.167969 276.632812 168.234375 277.453125 165.683594 275.964844 L 165.683594 275.515625 L 164.710938 275.515625 " fill-opacity="1" fill-rule="nonzero"/><path fill="#239be6" d="M 166.957031 276.003906 C 166.945312 276.3125 166.902344 276.457031 167.480469 276.964844 L 167.480469 276.457031 L 167.929688 276.457031 L 167.929688 275.964844 C 167.625 275.988281 167.460938 276.058594 166.957031 275.464844 L 166.957031 276.003906 " fill-opacity="1" fill-rule="nonzero"/><path fill="#239be6" d="M 208.292969 354.902344 C 207.933594 353.972656 203.863281 351.125 202.394531 352.277344 C 204.570312 352.894531 206.910156 354.554688 208.722656 356.351562 C 208.65625 355.914062 208.949219 355.46875 208.292969 354.902344 " fill-opacity="1" fill-rule="nonzero"/><path fill="#239be6" d="M 185.375 209.445312 L 185.375 209.953125 C 185.433594 209.800781 186.015625 209.632812 185.898438 209.027344 C 187.507812 209.734375 187.007812 206.058594 186.28125 207.667969 C 184.949219 207.550781 185.785156 207.695312 184.914062 208.992188 L 185.375 209.445312 " fill-opacity="1" fill-rule="nonzero"/></svg>