<svg xmlns="http://www.w3.org/2000/svg" data-v-334a4042="" fill="none" class="" viewBox="12.13 11.59 55.74 56.28"><path data-v-334a4042="" d="M30.1005 16.1005C36.439 13.475 43.561 13.475 49.8995 16.1005C56.238 18.726 61.274 23.762 63.8995 30.1005C66.525 36.439 66.525 43.561 63.8995 49.8995C61.274 56.238 56.238 61.274 49.8995 63.8995C43.561 66.525 36.439 66.525 30.1005 63.8995C23.762 61.274 18.726 56.238 16.1005 49.8995C13.475 43.561 13.475 36.439 16.1005 30.1005C18.726 23.762 23.762 18.726 30.1005 16.1005Z" fill="#F2F2F2"/><path data-v-334a4042="" d="M16.1004 30.1002L17.9481 30.8655L17.9481 30.8655L16.1004 30.1002ZM16.4104 29.3516L14.5627 28.5862L14.5627 28.5862L16.4104 29.3516ZM19.6642 27.31C20.2283 26.3604 19.9159 25.1333 18.9662 24.5691C18.0166 24.0049 16.7894 24.3174 16.2253 25.267L19.6642 27.31ZM16.1004 49.8992L14.2526 50.6645H14.2526L16.1004 49.8992ZM30.1004 63.8992L30.8657 62.0514L30.1004 63.8992ZM49.8993 63.8992L50.6647 65.7469L49.8993 63.8992ZM63.8993 49.8992L62.0516 49.1338L63.8993 49.8992ZM63.8993 30.1002L65.7471 29.3348V29.3348L63.8993 30.1002ZM49.8993 16.1002L49.134 17.9479V17.9479L49.8993 16.1002ZM46.9945 13.023C45.9253 12.7458 44.8338 13.3878 44.5566 14.457C44.2793 15.5262 44.9213 16.6177 45.9905 16.895L46.9945 13.023ZM17.9481 30.8655L18.2582 30.1169L14.5627 28.5862L14.2526 29.3348L17.9481 30.8655ZM18.2582 30.1169C18.6616 29.143 19.1321 28.2056 19.6642 27.31L16.2253 25.267C15.596 26.3261 15.0396 27.4348 14.5627 28.5862L18.2582 30.1169ZM17.9481 49.1338C15.5256 43.2853 15.5256 36.714 17.9481 30.8655L14.2526 29.3348C11.4241 36.1634 11.4241 43.8359 14.2526 50.6645L17.9481 49.1338ZM30.8657 62.0514C25.0172 59.6289 20.3706 54.9823 17.9481 49.1338L14.2526 50.6645C17.0811 57.4931 22.5064 62.9184 29.335 65.7469L30.8657 62.0514ZM49.134 62.0514C43.2855 64.4739 36.7142 64.4739 30.8657 62.0514L29.335 65.7469C36.1636 68.5754 43.8361 68.5754 50.6647 65.7469L49.134 62.0514ZM62.0516 49.1338C59.6291 54.9823 54.9825 59.6289 49.134 62.0514L50.6647 65.7469C57.4933 62.9184 62.9186 57.4931 65.7471 50.6645L62.0516 49.1338ZM62.0516 30.8655C64.4741 36.714 64.4741 43.2853 62.0516 49.1338L65.7471 50.6645C68.5756 43.8359 68.5756 36.1634 65.7471 29.3348L62.0516 30.8655ZM49.134 17.9479C54.9825 20.3705 59.6291 25.0171 62.0516 30.8655L65.7471 29.3348C62.9186 22.5062 57.4933 17.0809 50.6647 14.2524L49.134 17.9479ZM50.6647 14.2524C49.4644 13.7552 48.238 13.3454 46.9945 13.023L45.9905 16.895C47.0554 17.1711 48.1058 17.5221 49.134 17.9479L50.6647 14.2524Z" fill="#BDBDBD"/><path data-v-334a4042="" d="M39.1667 12.2333C39.6194 12.0458 40.1281 12.0458 40.5809 12.2333C41.0336 12.4209 41.3933 12.7806 41.5809 13.2333C41.7684 13.6861 41.7684 14.1948 41.5809 14.6475C41.3933 15.1003 41.0336 15.46 40.5809 15.6475C40.1281 15.8351 39.6194 15.8351 39.1667 15.6475C38.7139 15.46 38.3542 15.1003 38.1667 14.6475C37.9791 14.1948 37.9791 13.6861 38.1667 13.2333C38.3542 12.7806 38.7139 12.4209 39.1667 12.2333Z" fill="#BDBDBD" stroke="#BDBDBD" stroke-linecap="square"/><path data-v-334a4042="" d="M20.4142 20.5858L41.0224 38.4462C41.41 38.7821 41.6495 39.2574 41.6888 39.7688C41.7804 40.9599 40.7883 41.952 39.5973 41.8604C39.0858 41.8211 38.6106 41.5816 38.2746 41.194L20.4142 20.5858Z" fill="#EB5757" stroke="#EB5757" stroke-width="4" stroke-linecap="round" stroke-linejoin="round"/></svg>