<svg xmlns="http://www.w3.org/2000/svg" xmlns:xlink="http://www.w3.org/1999/xlink" zoomAndPan="magnify" preserveAspectRatio="xMidYMid meet" version="1.0" viewBox="21.04 194 552.54 345.73"><defs><clipPath id="id1"><path d="M 42 219 L 573.582031 219 L 573.582031 539.734375 L 42 539.734375 Z M 42 219 " clip-rule="nonzero"/></clipPath><clipPath id="id2"><path d="M 21.039062 194 L 556 194 L 556 517 L 21.039062 517 Z M 21.039062 194 " clip-rule="nonzero"/></clipPath></defs><g clip-path="url(#id1)"><path fill="#e0d5b2" d="M 42.136719 219.730469 L 573.519531 219.730469 L 573.519531 539.3125 L 42.136719 539.3125 Z M 42.136719 219.730469 " fill-opacity="1" fill-rule="nonzero"/></g><path fill="#fff6cf" d="M 22.628906 195.6875 L 554.007812 195.6875 L 554.007812 515.269531 L 22.628906 515.269531 Z M 22.628906 195.6875 " fill-opacity="1" fill-rule="nonzero"/><path fill="#f9f0cb" d="M 22.628906 515.269531 C 22.628906 515.269531 503.011719 490.78125 554.007812 195.6875 L 554.007812 515.269531 Z M 22.628906 515.269531 " fill-opacity="1" fill-rule="nonzero"/><path fill="#00a79d" d="M 58.753906 221.097656 C 58.753906 221.757812 58.6875 222.410156 58.5625 223.058594 C 58.433594 223.703125 58.242188 224.332031 57.988281 224.941406 C 57.738281 225.550781 57.429688 226.132812 57.0625 226.679688 C 56.695312 227.230469 56.277344 227.738281 55.8125 228.203125 C 55.347656 228.667969 54.839844 229.085938 54.292969 229.453125 C 53.742188 229.820312 53.164062 230.128906 52.554688 230.382812 C 51.945312 230.632812 51.320312 230.824219 50.671875 230.953125 C 50.023438 231.082031 49.371094 231.148438 48.714844 231.148438 C 48.054688 231.148438 47.402344 231.082031 46.753906 230.953125 C 46.109375 230.824219 45.480469 230.632812 44.871094 230.382812 C 44.261719 230.128906 43.683594 229.820312 43.136719 229.453125 C 42.585938 229.085938 42.078125 228.667969 41.613281 228.203125 C 41.148438 227.738281 40.730469 227.230469 40.363281 226.679688 C 40 226.132812 39.6875 225.550781 39.4375 224.941406 C 39.183594 224.332031 38.996094 223.703125 38.867188 223.058594 C 38.738281 222.410156 38.671875 221.757812 38.671875 221.097656 C 38.671875 220.4375 38.738281 219.785156 38.867188 219.136719 C 38.996094 218.488281 39.183594 217.859375 39.4375 217.25 C 39.6875 216.640625 40 216.0625 40.363281 215.515625 C 40.730469 214.964844 41.148438 214.457031 41.613281 213.992188 C 42.078125 213.523438 42.585938 213.109375 43.136719 212.742188 C 43.683594 212.375 44.261719 212.066406 44.871094 211.8125 C 45.480469 211.558594 46.109375 211.371094 46.753906 211.242188 C 47.402344 211.113281 48.054688 211.046875 48.714844 211.046875 C 49.371094 211.046875 50.023438 211.113281 50.671875 211.242188 C 51.320312 211.371094 51.945312 211.558594 52.554688 211.8125 C 53.164062 212.066406 53.742188 212.375 54.292969 212.742188 C 54.839844 213.109375 55.347656 213.523438 55.8125 213.992188 C 56.277344 214.457031 56.695312 214.964844 57.0625 215.515625 C 57.429688 216.0625 57.738281 216.640625 57.988281 217.25 C 58.242188 217.859375 58.433594 218.488281 58.5625 219.136719 C 58.6875 219.785156 58.753906 220.4375 58.753906 221.097656 Z M 58.753906 221.097656 " fill-opacity="1" fill-rule="nonzero"/><path fill="#00a79d" d="M 541.554688 221.097656 C 541.554688 221.757812 541.488281 222.410156 541.359375 223.058594 C 541.230469 223.703125 541.042969 224.332031 540.789062 224.941406 C 540.535156 225.550781 540.226562 226.132812 539.863281 226.679688 C 539.496094 227.230469 539.078125 227.738281 538.613281 228.203125 C 538.148438 228.667969 537.640625 229.085938 537.089844 229.453125 C 536.542969 229.820312 535.964844 230.128906 535.355469 230.382812 C 534.746094 230.632812 534.117188 230.824219 533.472656 230.953125 C 532.824219 231.082031 532.171875 231.148438 531.511719 231.148438 C 530.855469 231.148438 530.199219 231.082031 529.554688 230.953125 C 528.90625 230.824219 528.28125 230.632812 527.671875 230.382812 C 527.0625 230.128906 526.484375 229.820312 525.933594 229.453125 C 525.386719 229.085938 524.878906 228.667969 524.414062 228.203125 C 523.949219 227.738281 523.53125 227.230469 523.164062 226.679688 C 522.796875 226.132812 522.488281 225.550781 522.238281 224.941406 C 521.984375 224.332031 521.792969 223.703125 521.664062 223.058594 C 521.535156 222.410156 521.472656 221.757812 521.472656 221.097656 C 521.472656 220.4375 521.535156 219.785156 521.664062 219.136719 C 521.792969 218.488281 521.984375 217.859375 522.238281 217.25 C 522.488281 216.640625 522.796875 216.0625 523.164062 215.515625 C 523.53125 214.964844 523.949219 214.457031 524.414062 213.992188 C 524.878906 213.523438 525.386719 213.109375 525.933594 212.742188 C 526.484375 212.375 527.0625 212.066406 527.671875 211.8125 C 528.28125 211.558594 528.90625 211.371094 529.554688 211.242188 C 530.199219 211.113281 530.855469 211.046875 531.511719 211.046875 C 532.171875 211.046875 532.824219 211.113281 533.472656 211.242188 C 534.117188 211.371094 534.746094 211.558594 535.355469 211.8125 C 535.964844 212.066406 536.542969 212.375 537.089844 212.742188 C 537.640625 213.109375 538.148438 213.523438 538.613281 213.992188 C 539.078125 214.457031 539.496094 214.964844 539.863281 215.515625 C 540.226562 216.0625 540.535156 216.640625 540.789062 217.25 C 541.042969 217.859375 541.230469 218.488281 541.359375 219.136719 C 541.488281 219.785156 541.554688 220.4375 541.554688 221.097656 Z M 541.554688 221.097656 " fill-opacity="1" fill-rule="nonzero"/><g clip-path="url(#id2)"><path fill="#082a44" d="M 555.597656 516.859375 L 22.628906 516.859375 C 21.738281 516.859375 21.039062 516.160156 21.039062 515.269531 C 21.039062 514.378906 21.738281 513.679688 22.628906 513.679688 L 552.421875 513.679688 L 552.421875 195.6875 C 552.421875 194.796875 553.121094 194.097656 554.007812 194.097656 C 554.898438 194.097656 555.597656 194.796875 555.597656 195.6875 Z M 555.597656 516.859375 " fill-opacity="1" fill-rule="nonzero"/></g></svg>